<mxfile host="app.diagrams.net" modified="2023-10-31T07:42:08.218Z" agent="Mozilla/5.0 (Macintosh; Intel Mac OS X 10_15_7) AppleWebKit/537.36 (KHTML, like Gecko) Chrome/117.0.0.0 Safari/537.36" etag="BmYZF8AwAdw46DgoAeFW" version="22.0.0" type="device">
  <diagram name="Page-1" id="3tj_-0WCuf3-UZmH2dFG">
    <mxGraphModel dx="953" dy="585" grid="1" gridSize="10" guides="1" tooltips="1" connect="1" arrows="1" fold="1" page="1" pageScale="1" pageWidth="850" pageHeight="1100" math="0" shadow="0">
      <root>
        <mxCell id="0" />
        <mxCell id="1" parent="0" />
        <mxCell id="k1lhJLc1v-rNYR--FyjY-2" value="client" style="shape=ext;double=1;rounded=1;whiteSpace=wrap;html=1;" vertex="1" parent="1">
          <mxGeometry x="110" y="148" width="160" height="150" as="geometry" />
        </mxCell>
        <mxCell id="k1lhJLc1v-rNYR--FyjY-4" value="server" style="shape=ext;double=1;rounded=1;whiteSpace=wrap;html=1;" vertex="1" parent="1">
          <mxGeometry x="555" y="148" width="160" height="150" as="geometry" />
        </mxCell>
        <mxCell id="k1lhJLc1v-rNYR--FyjY-5" value="" style="endArrow=classic;html=1;rounded=0;" edge="1" parent="1">
          <mxGeometry relative="1" as="geometry">
            <mxPoint x="296" y="174" as="sourcePoint" />
            <mxPoint x="526" y="174" as="targetPoint" />
          </mxGeometry>
        </mxCell>
        <mxCell id="k1lhJLc1v-rNYR--FyjY-6" value="Request" style="edgeLabel;resizable=0;html=1;align=center;verticalAlign=middle;" connectable="0" vertex="1" parent="k1lhJLc1v-rNYR--FyjY-5">
          <mxGeometry relative="1" as="geometry" />
        </mxCell>
        <mxCell id="k1lhJLc1v-rNYR--FyjY-7" value="" style="endArrow=classic;html=1;rounded=0;" edge="1" parent="1">
          <mxGeometry relative="1" as="geometry">
            <mxPoint x="296" y="207" as="sourcePoint" />
            <mxPoint x="526" y="207" as="targetPoint" />
          </mxGeometry>
        </mxCell>
        <mxCell id="k1lhJLc1v-rNYR--FyjY-8" value="Request" style="edgeLabel;resizable=0;html=1;align=center;verticalAlign=middle;" connectable="0" vertex="1" parent="k1lhJLc1v-rNYR--FyjY-7">
          <mxGeometry relative="1" as="geometry" />
        </mxCell>
        <mxCell id="k1lhJLc1v-rNYR--FyjY-14" value="" style="endArrow=classic;html=1;rounded=0;" edge="1" parent="1">
          <mxGeometry relative="1" as="geometry">
            <mxPoint x="524" y="241" as="sourcePoint" />
            <mxPoint x="294" y="241" as="targetPoint" />
          </mxGeometry>
        </mxCell>
        <mxCell id="k1lhJLc1v-rNYR--FyjY-17" value="Response" style="edgeLabel;html=1;align=center;verticalAlign=middle;resizable=0;points=[];" vertex="1" connectable="0" parent="k1lhJLc1v-rNYR--FyjY-14">
          <mxGeometry x="-0.0174" y="2" relative="1" as="geometry">
            <mxPoint y="-2" as="offset" />
          </mxGeometry>
        </mxCell>
        <mxCell id="k1lhJLc1v-rNYR--FyjY-18" value="" style="endArrow=classic;html=1;rounded=0;" edge="1" parent="1">
          <mxGeometry relative="1" as="geometry">
            <mxPoint x="524" y="277" as="sourcePoint" />
            <mxPoint x="294" y="277" as="targetPoint" />
          </mxGeometry>
        </mxCell>
        <mxCell id="k1lhJLc1v-rNYR--FyjY-19" value="Response" style="edgeLabel;html=1;align=center;verticalAlign=middle;resizable=0;points=[];" vertex="1" connectable="0" parent="k1lhJLc1v-rNYR--FyjY-18">
          <mxGeometry x="-0.0174" y="2" relative="1" as="geometry">
            <mxPoint y="-2" as="offset" />
          </mxGeometry>
        </mxCell>
      </root>
    </mxGraphModel>
  </diagram>
</mxfile>
